<svg xmlns="http://www.w3.org/2000/svg" style="display:none;">

  <!-- Facebook -->
  <symbol id="icon-facebook" viewBox="0 0 48 48">
    <path d="M24 42.5V18.57a5.07 5.07 0 0 1 5.08-5.07c2.49 0 4.05.74 5.12 2.12"
      fill="none" stroke="currentColor" stroke-width="2.2"
      stroke-linecap="round" stroke-linejoin="round" />

    <line x1="19.7" y1="23.29" x2="29.85" y2="23.29"
      stroke="currentColor" stroke-width="2.2"
      stroke-linecap="round" stroke-linejoin="round" />

    <path d="M7.48 5.5a2 2 0 0 0-2 2v33a2 2 0 0 0 2 2h33.04a2 2 0 0 0 2-2v-33a2 2 0 0 0-2-2H7.48Z"
      fill="none" stroke="currentColor" stroke-width="2.2"
      stroke-linecap="round" stroke-linejoin="round" />
  </symbol>


  <!-- Instagram -->
  <symbol id="icon-instagram" viewBox="0 0 24 24">
    <path d="M9 22H15C20 22 22 20 22 15V9C22 4 20 2 15 2H9C4 2 2 4 2 9V15C2 20 4 22 9 22Z"
      fill="none" stroke="currentColor" stroke-width="1.8"
      stroke-linecap="round" stroke-linejoin="round" />

    <path d="M12 15.5C13.93 15.5 15.5 13.93 15.5 12C15.5 10.07 13.93 8.5 12 8.5C10.07 8.5 8.5 10.07 8.5 12C8.5 13.93 10.07 15.5 12 15.5Z"
      fill="none" stroke="currentColor" stroke-width="1.8"
      stroke-linecap="round" stroke-linejoin="round" />

    <path d="M17.64 7H17.65"
      fill="none" stroke="currentColor" stroke-width="1.8"
      stroke-linecap="round" stroke-linejoin="round" />
  </symbol>


  <!-- Telegram (RESTORED EXACTLY AS BEFORE) -->
  <symbol id="icon-telegram" viewBox="0 0 256 256">
    <path d="M228.646 34.7676a11.965 11.965 0 0 0-12.218-2.0752L31.8711 105.1973a12 12 0 0 0 2.0347 22.9346L84 138.1514v61.833a11.814 11.814 0 0 0 7.4077 11.0859 12.171 12.171 0 0 0 4.6685.9444 11.832 11.832 0 0 0 8.4091-3.5459l28.5962-28.5962 42.1934 38.13a11.898 11.898 0 0 0 7.8882 3.002 12.112 12.112 0 0 0 3.7226-.5908 11.898 11.898 0 0 0 8.0132-8.7392L232.5127 46.542a11.972 11.972 0 0 0-3.8667-11.7744ZM32.2749 116.7188a3.866 3.866 0 0 1 2.522-4.0762L203.9722 46.1804 87.0723 130.6077 35.4746 120.2881a3.866 3.866 0 0 1-3.1997-3.5693Zm66.5533 86.0937A4 4 0 0 1 92 199.9844V143.7205l35.064 30.8567ZM224.7148 44.7549 187.1011 208.8877a4 4 0 0 1-6.5415 2.1094l-86.1543-75.8164 129.6631-93.645a3.807 3.807 0 0 1 .6464 3.2196Z"
      fill="currentColor" stroke="currentColor" stroke-width="1.5"
      stroke-linecap="round" stroke-linejoin="round" />
  </symbol>


  <!-- LinkedIn -->
  <symbol id="icon-linkedin" viewBox="0 0 48 48">
    <circle cx="15.64" cy="13.46" r=".75" fill="currentColor" />

    <line x1="15.64" y1="16.93" x2="15.64" y2="31.91"
      stroke="currentColor" stroke-width="2.2"
      stroke-linecap="round" stroke-linejoin="round" />

    <path d="m33.11 31.91v-9.61a5.83 5.83 0 0 0-5.82-5.82 5.83 5.83 0 0 0-5.83 5.82v9.61"
      fill="none" stroke="currentColor" stroke-width="2.2"
      stroke-linecap="round" stroke-linejoin="round" />

    <line x1="21.46" y1="22.3" x2="21.46" y2="16.93"
      stroke="currentColor" stroke-width="2.2"
      stroke-linecap="round" stroke-linejoin="round" />

    <path d="m40.5 5.5h-33a2 2 0 0 0-2 2v33a2 2 0 0 0 2 2h33a2 2 0 0 0 2-2v-33a2 2 0 0 0-2-2z"
      fill="none" stroke="currentColor" stroke-width="2.2"
      stroke-linecap="round" stroke-linejoin="round" />
  </symbol>


  <!-- GitHub -->
  <symbol id="icon-github" viewBox="0 0 48 48">
    <path d="M24,2.5a21.5,21.5,0,0,0-6.8,41.9c1.08.2,1.47-.46,1.47-1s0-1.86,0-3.65c-6,1.3-7.24-2.88-7.24-2.88A5.7,5.7,0,0,0,9,33.68c-1.95-1.33.15-1.31.15-1.31a4.52,4.52,0,0,1,3.29,2.22c1.92,3.29,5,2.34,6.26,1.79a4.61,4.61,0,0,1,1.37-2.88c-4.78-.54-9.8-2.38-9.8-10.62a8.29,8.29,0,0,1,2.22-5.77,7.68,7.68,0,0,1,.21-5.69s1.8-.58,5.91,2.2a20.46,20.46,0,0,1,10.76,0c4.11-2.78,5.91-2.2,5.91-2.2a7.74,7.74,0,0,1,.21,5.69,8.28,8.28,0,0,1,2.21,5.77c0,8.26-5,10.07-9.81,10.61a5.12,5.12,0,0,1,1.46,4c0,2.87,0,5.19,0,5.9s.39,1.24,1.48,1A21.5,21.5,0,0,0,24,2.5"
      fill="none" stroke="currentColor" stroke-width="2.2"
      stroke-linecap="round" stroke-linejoin="round" />
  </symbol>

<!-- Food --> 


<symbol id="icon-foods" viewBox="0 0 122.88 122.88">
  <path
    fill="#d6a419"
    stroke="#d6a419"
    d="M97.34,0.74c0.86-0.93,2.3-0.99,3.23-0.13c0.93,0.86,0.99,2.3,0.13,3.23L81.98,24.1l-0.03,0.04
      c-2.29,2.77-3.86,5.33-4.56,7.67c-0.62,2.07-0.53,3.95,0.39,5.59c0.49,0.88,0.33,1.96-0.32,2.67l-8.89,9.62
      c-0.87-0.95-1.56-1.72-2.02-2.22c-0.21-0.28-0.45-0.55-0.7-0.81c-0.12-0.13-0.25-0.25-0.38-0.37l7.6-8.23
      c-0.89-2.38-0.88-4.91-0.06-7.6c0.88-2.92,2.75-6.03,5.44-9.27c0.06-0.08,0.11-0.16,0.18-0.23L97.32,0.72L97.34,0.74z
      M57.13,55.01c-0.84-0.94-0.76-2.39,0.18-3.23c0.94-0.84,2.39-0.76,3.23,0.18c9.41,10.54,38.5,41.73,46.56,53.39
      c10.63,15.05-5.83,19.79-11.29,14.31c-13.64-13.19-42.6-46.82-55.33-61.08c-4.58,1.94-9.03,2.24-13.5,0.96
      c-4.81-1.37-9.52-4.58-14.3-9.51c-3.64-3.84-6.49-7.63-8.55-11.38c-2.11-3.86-3.4-7.68-3.86-11.47c-0.49-4.08-0.11-7.88,0.99-11.25
      c1.29-3.96,3.58-7.31,6.58-9.8c3.02-2.5,6.73-4.12,10.87-4.62c3.44-0.41,7.19-0.06,11.07,1.21c5.37,1.75,11.63,6.1,16.82,11.68
      c3.83,4.11,7.11,8.92,9.06,13.87c2.03,5.16,2.65,10.5,1.02,15.5c-0.96,2.96-2.7,5.74-5.4,8.25c-0.93,0.86-2.37,0.8-3.23-0.12
      c-0.86-0.93-0.8-2.37,0.12-3.23c2.09-1.95,3.43-4.08,4.16-6.33c1.26-3.87,0.73-8.16-0.93-12.38c-1.74-4.42-4.69-8.74-8.15-12.45
      c-4.68-5.02-10.23-8.91-14.91-10.44c-3.21-1.04-6.28-1.34-9.09-1c-3.26,0.4-6.18,1.65-8.51,3.6c-2.34,1.95-4.13,4.58-5.16,7.71
      c-0.89,2.73-1.2,5.87-0.79,9.26c0.39,3.2,1.5,6.47,3.32,9.81c1.91,3.43,4.53,6.9,7.9,10.45c4.22,4.35,8.27,7.15,12.28,8.29
      c3.79,1.08,7.65,0.66,11.68-1.35c0.92-0.53,2.11-0.35,2.84,0.47c12.42,13.91,42.63,48.92,56.01,61.89c5.81,2.37,9.03-0.55,6.25-5.7
      C100.7,102.43,63.5,62.17,57.13,55.01z M45.07,75.12l-29.16,31.55c-4.26,4.6,3.28,11.3,7.96,6.82l28.32-30.65l3.04,3.45l-28.1,30.41
      c-1.68,1.41-3.37,2.33-5.08,2.71c-1.76,0.4-3.49,0.22-5.15-0.56c-0.28-0.11-0.54-0.25-0.77-0.46l-4.03-3.73
      c-1.56-1.8-2.3-3.72-2.1-5.75c0.19-1.92,1.21-3.79,3.14-5.59l29.44-31.86L45.07,75.12z M75.63,57.46l1.73-1.87
      c0.86-0.93,2.31-0.99,3.23-0.13s0.99,2.3,0.13,3.23l-2,2.16L75.63,57.46z M104.45,7.43c0.86-0.93,2.3-0.99,3.23-0.13
      c0.93,0.86,0.99,2.3,0.13,3.23L91.4,28.3c-0.86,0.93-2.3,0.99-3.23,0.13c-0.93-0.86-0.99-2.3-0.13-3.23L104.45,7.43z
      M111.55,14c0.86-0.93,2.3-0.99,3.23-0.13c0.93,0.86,0.99,2.3,0.13,3.23L98.51,34.86c-0.86,0.93-2.3,0.99-3.23,0.13
      c-0.93-0.86-0.99-2.3-0.13-3.23L111.55,14z M118.91,20.83c0.86-0.93,2.3-0.99,3.23-0.13c0.93,0.86,0.99,2.31,0.13,3.23L103.55,44.2
      c-4.26,4.1-8.33,6.47-12.22,7.14c-4.22,0.73-8.09-0.47-11.64-3.57c-0.95-0.83-1.04-2.28-0.22-3.22c0.83-0.95,2.28-1.04,3.22-0.22
      c2.45,2.14,5.07,2.98,7.84,2.49c2.98-0.51,6.26-2.48,9.84-5.93l18.71-20.25L118.91,20.83z"
  />
</symbol>


<symbol id="icon-fruits" viewBox="0 0 100 100">
            <g id="fruits">
              <path
                fill="#d6a419"
                stroke="#d6a419"
                d="M95,45h-2.1c0.1-0.7,0.1-1.3,0.1-2c0-9.1-6.4-15.6-16-16.8c0.4-4.4,4-5.2,4.2-5.2c0.3-0.1,0.6-0.3,0.7-0.5
        c0.1-0.3,0.1-0.6,0-0.9l-2-4c-0.2-0.4-0.7-0.6-1.2-0.5c-3.6,1-5.4,3.8-6.2,6.6c-0.4-0.8-1-1.7-1.7-2.4c-3-3-7.6-3.1-7.8-3.1
        c-0.3,0-0.5,0.1-0.7,0.3c-0.2,0.2-0.3,0.5-0.3,0.7c0,0.2,0.1,4.8,3.1,7.8c0.9,0.8,1.8,1.5,2.8,1.9c-2.2,0.6-4.2,1.5-5.9,2.7
        c-2.6-1.8-5.6-2.9-9-3.3c0.4-4.4,4-5.2,4.2-5.2c0.3-0.1,0.6-0.3,0.7-0.5c0.1-0.3,0.1-0.6,0-0.9l-2-4c-0.2-0.4-0.7-0.6-1.2-0.5
        c-3.6,1-5.4,3.8-6.2,6.6c-0.4-0.8-1-1.7-1.7-2.4c-3-3-7.6-3.1-7.8-3.1c-0.3,0-0.5,0.1-0.7,0.3c-0.2,0.2-0.3,0.5-0.3,0.7
        c0,0.2,0.1,4.8,3.1,7.8c0.9,0.9,1.8,1.5,2.8,1.9c-2.2,0.6-4.2,1.5-5.9,2.7c-2.5-1.7-5.6-2.9-9-3.3c0.4-4.4,4-5.2,4.2-5.2
        c0.3-0.1,0.6-0.3,0.7-0.5c0.1-0.3,0.1-0.6,0-0.9l-2-4c-0.2-0.4-0.7-0.6-1.2-0.5c-3.6,1-5.4,3.8-6.2,6.6c-0.4-0.8-1-1.7-1.7-2.4
        c-3-3-7.6-3.1-7.8-3.1c-0.3,0-0.5,0.1-0.7,0.3c-0.2,0.2-0.3,0.5-0.3,0.7c0,0.2,0.1,4.8,3.1,7.8c0.8,0.8,1.8,1.4,2.8,1.9
        C12.1,28.8,7,34.9,7,43c0,0.7,0,1.3,0.1,2H5c-0.6,0-1,0.4-1,1v6c0,0.6,0.4,1,1,1h1.1l3.5,22.7c0.8,5.4,5.4,9.3,10.9,9.3h58.9
        c5.5,0,10-3.9,10.9-9.3L93.9,53H95c0.6,0,1-0.4,1-1v-6C96,45.4,95.6,45,95,45z M91,43c0,0.7-0.1,1.3-0.1,2h-22
        c0.1-0.7,0.1-1.3,0.1-2c0-4.9-1.9-9.2-5.3-12.2C66.5,29,70.1,28,74,28C84,28,91,34.2,91,43z M33.1,45c-0.1-0.7-0.1-1.3-0.1-2
        c0-4.7,2-8.8,5.6-11.5c3-2.3,7.1-3.5,11.4-3.5s8.4,1.2,11.4,3.5C65,34.2,67,38.3,67,43c0,0.7-0.1,1.3-0.1,2H33.1z
        M78.5,17.2l1.1,2.2c-1.9,0.8-4.2,2.8-4.5,6.6c-0.3,0-0.7,0-1,0c0,0,0,0,0,0C73.9,24,74.3,19,78.5,17.2z M64.1,18.2
        c1.4,0.2,3.6,0.8,5.2,2.4c1.6,1.6,2.2,3.9,2.4,5.2c-1.4-0.2-3.6-0.8-5.2-2.4C64.9,21.9,64.3,19.6,64.1,18.2z
        M54.5,17.2l1.1,2.2c-1.9,0.8-4.2,2.8-4.5,6.6c-0.3,0-0.7,0-1,0c0,0,0,0,0,0C49.9,24,50.3,19,54.5,17.2z M40.1,18.2
        c1.4,0.2,3.6,0.8,5.2,2.4c1.6,1.6,2.2,3.9,2.4,5.2c-1.4-0.2-3.6-0.8-5.2-2.4C40.9,21.9,40.3,19.6,40.1,18.2z
        M30.5,17.2l1.1,2.2c-1.9,0.8-4.2,2.8-4.5,6.6c-0.3,0-0.7,0-1,0c0,0,0,0,0,0C25.9,24,26.3,19,30.5,17.2z
        M16.1,18.2c1.4,0.2,3.6,0.8,5.2,2.4c1.6,1.6,2.2,3.9,2.4,5.2c-1.4-0.2-3.6-0.8-5.2-2.4C16.9,21.9,16.3,19.6,16.1,18.2z
        M9,43c0-8.8,7-15,17-15c3.9,0,7.5,1,10.3,2.8C32.9,33.8,31,38.1,31,43c0,0.7,0,1.3,0.1,2h-22C9.1,44.3,9,43.7,9,43z
        M88.3,75.4c-0.7,4.4-4.4,7.6-8.9,7.6H20.6c-4.5,0-8.2-3.2-8.9-7.6L8.2,53h83.7L88.3,75.4z M94,51h-1H7H6v-4h88V51z"
              />
            </g>
          </symbol>

 <!-- Friendly -->


<symbol id="icon-friendly" viewBox="0 0 48 48">
  <path fill="none" stroke="#d6a419" stroke-linecap="round" stroke-linejoin="round" d="M24,28.459c-3.2775,0-4.52-1.42-5.0966-2.2184" />
  <path fill="none" stroke="#d6a419" stroke-linecap="round" stroke-linejoin="round" d="M18.5788,22.0419a2.8256,2.8256,0,0,0-5.6511,0" />
  <path fill="none" stroke="#d6a419" stroke-linecap="round" stroke-linejoin="round" d="M15.7532,36.8447c1.7016.1343,1.442,4.5922-.732,4.3481S13.2242,36.6451,15.7532,36.8447Z" />
  <ellipse fill="none" stroke="#d6a419" stroke-linecap="round" stroke-linejoin="round" cx="8.743" cy="7.9608" rx="2.4403" ry="1.3311" transform="translate(-3.0683 8.5139) rotate(-45)" />
  <path fill="none" stroke="#d6a419" stroke-linecap="round" stroke-linejoin="round" d="M14.4982,11.9025a58.5433,58.5433,0,0,0-4.03-5.6673" />
  <path fill="none" stroke="#d6a419" stroke-linecap="round" stroke-linejoin="round" d="M12.74,13.5991c-1.53-1.6966-5.7225-3.9128-5.7225-3.9128" />
  <path fill="none" stroke="#d6a419" stroke-linecap="round" stroke-linejoin="round" d="M24,28.459c3.2775,0,4.52-1.42,5.0966-2.2184" />
  <path fill="none" stroke="#d6a419" stroke-linecap="round" stroke-linejoin="round" d="M29.4212,22.0419a2.8256,2.8256,0,0,1,5.6511,0" />
  <path fill="none" stroke="#d6a419" stroke-linecap="round" stroke-linejoin="round" d="M24,43.5c5.0966,0,5.6734-1.6416,5.6734-2.7065S28.5642,36.1644,24,36.1644s-5.6734,3.5643-5.6734,4.6291S18.9034,43.5,24,43.5Z" />
  <path fill="none" stroke="#d6a419" stroke-linecap="round" stroke-linejoin="round" d="M32.2468,36.8447c-1.7016.1343-1.442,4.5922.732,4.3481S34.7758,36.6451,32.2468,36.8447Z" />
  <ellipse fill="none" stroke="#d6a419" stroke-linecap="round" stroke-linejoin="round" cx="39.257" cy="7.9608" rx="1.3311" ry="2.4403" transform="translate(5.869 30.0905) rotate(-45)" />
  <path fill="none" stroke="#d6a419" stroke-linecap="round" stroke-linejoin="round" d="M33.5018,11.9025a58.5433,58.5433,0,0,1,4.03-5.6673" />
  <path fill="none" stroke="#d6a419" stroke-linecap="round" stroke-linejoin="round" d="M35.26,13.5991c1.53-1.6966,5.7225-3.9128,5.7225-3.9128" />
  <path fill="none" stroke="#d6a419" stroke-linecap="round" stroke-linejoin="round" d="M28.332,8.9471l.0255.0007A3.4467,3.4467,0,0,0,29.7294,7.34a9.9478,9.9478,0,0,0-4.1707.9022A37.0638,37.0638,0,0,0,28.6645,4.5s-6.2116,1.5529-8.3118,4.2326l.0165,0C11.7538,11.091,6.776,21.4716,6.776,27.5273c0,6.8623,12.56,8.6371,17.224,8.6371S41.224,34.39,41.224,27.5273C41.224,21.6381,36.515,11.66,28.332,8.9471Z" />
</symbol>




<symbol id="icon-hospitality" viewBox="0 0 1024 1024">
              <path
                d="M788 946.4c-11.2 0-20.8-8.8-20.8-20v-21.6H256.8v21.6c0 11.2-9.6 20-20.8 20-11.2 0-20.8-8.8-20.8-20V904l-2.4-0.8c-43.2-8-74.4-44-74.4-86.4v-200l0.8-22.4h-2.4C60 584 3.2 519.2 3.2 445.6c0-76 59.2-140 136.8-149.6h2.4v-77.6c0-64.8 36-130.4 116-130.4h512c31.2 0 58.4 10.4 78.4 30.4 23.2 23.2 36 59.2 36 100l0.8 77.6h2.4c75.2 11.2 132 75.2 132 148.8 0 73.6-57.6 137.6-132.8 148.8h-2.4l0.8 22.4v200.8c0 42.4-31.2 78.4-74.4 86.4l-2.4 0.8v22.4c-0.8 11.2-9.6 20-20.8 20zM160 334.4c-64 0-116 50.4-116 111.2s52 112 116 112c5.6 0 11.2 2.4 14.4 5.6 4 4 5.6 8.8 5.6 14.4l-0.8 40.8v200c0 26.4 22.4 48.8 50.4 48.8h564c28 0 50.4-21.6 50.4-48.8v-200l-0.8-40.8c0-5.6 1.6-10.4 5.6-14.4 4-4 8.8-5.6 14.4-5.6 64 0 116-49.6 116-111.2s-51.2-112-115.2-112c-63.2 0-115.2 49.6-116 110.4l1.6 20v202.4c0 11.2-9.6 20-20.8 20H294.4c-11.2 0-20.8-8.8-20.8-20V466.4v-1.6l1.6-19.2c0-61.6-52-111.2-115.2-111.2zM266.4 136c-49.6 0-71.2 44-71.2 87.2v76l2.4 0.8c64.8 11.2 114.4 60.8 123.2 123.2V640H704V422.4c9.6-62.4 62.4-113.6 128-123.2h2.4V224c0-43.2-21.6-87.2-70.4-87.2H266.4z"
                fill="none"
                stroke="#d6a419"
                stroke-width="10"
                stroke-linecap="round"
                stroke-linejoin="round"
              />
            </symbol>

  </svg>









