<?xml version="1.0" encoding="UTF-8"?>
<svg version="1.1" xmlns="http://www.w3.org/2000/svg" width="512" height="512">
<path  d="M0 0 C1.03958611 -0.0098568 1.03958611 -0.0098568 2.10017395 -0.01991272 C4.39254876 -0.0396145 6.68485815 -0.05130119 8.97729492 -0.0612793 C9.76139929 -0.06535482 10.54550365 -0.06943035 11.35336876 -0.07362938 C15.50348013 -0.09447665 19.65355856 -0.10878425 23.80371094 -0.11816406 C28.08437825 -0.12922679 32.36452551 -0.16362848 36.64500904 -0.20333576 C39.94191945 -0.2295123 43.2387061 -0.23785678 46.53571129 -0.24144554 C48.11333415 -0.24630872 49.69095159 -0.25791514 51.26847267 -0.27648354 C53.48017951 -0.30089891 55.69054269 -0.2999065 57.90234375 -0.29296875 C59.15904373 -0.29883499 60.41574371 -0.30470123 61.71052551 -0.31074524 C65.78631285 0.26803362 67.94473495 1.63959854 71.14526367 4.17700195 C74.74392076 9.10974469 73.51438634 16.23931747 73.52026367 22.05200195 C73.54475586 23.31915039 73.56924805 24.58629883 73.59448242 25.8918457 C73.63104807 37.48315705 73.63104807 37.48315705 69.14526367 42.17700195 C66.47181853 43.95929871 65.40756008 44.17700195 62.14526367 44.17700195 C63.32239425 76.29592837 63.32239425 76.29592837 67.14526367 108.17700195 C67.39034668 109.65982666 67.39034668 109.65982666 67.64038086 111.17260742 C71.75313333 135.25995717 79.55883952 157.83909413 88.0682373 180.65133667 C91.86792855 190.8473096 95.58271448 201.03946609 98.83276367 211.42700195 C99.13504883 212.36930664 99.43733398 213.31161133 99.7487793 214.2824707 C104.49487119 229.9127872 105.62114191 245.56041211 105.83276367 261.80200195 C105.8660576 263.5988998 105.90055758 265.39577573 105.9362793 267.19262695 C106.01976778 271.52062695 106.08720508 275.84858925 106.14526367 280.17700195 C106.84868896 279.71519531 107.55211426 279.25338867 108.27685547 278.77758789 C129.09826358 265.28612026 151.79661839 259.54454665 176.65307617 263.91137695 C180.09122062 264.51990834 180.09122062 264.51990834 182.39526367 262.77075195 C182.97276367 262.07981445 183.55026367 261.38887695 184.14526367 260.67700195 C184.80397461 259.93708008 185.46268555 259.1971582 186.14135742 258.43481445 C186.80264648 257.68973633 187.46393555 256.9446582 188.14526367 256.17700195 C189.47748005 254.94451003 190.83129293 253.73486505 192.20776367 252.55200195 C192.85874023 251.99125977 193.5097168 251.43051758 194.18041992 250.8527832 C194.82881836 250.29977539 195.4772168 249.74676758 196.14526367 249.17700195 C196.82459961 248.59305664 197.50393555 248.00911133 198.20385742 247.4074707 C199.84852968 245.99444243 201.496533 244.58529273 203.14526367 243.17700195 C202.81526367 242.37262695 202.48526367 241.56825195 202.14526367 240.73950195 C200.52919539 234.98225871 200.07326401 230.28129759 202.83276367 224.86450195 C206.16983701 220.98628159 209.50783807 217.37958117 214.78979492 216.97387695 C215.83522461 216.9584082 216.8806543 216.94293945 217.95776367 216.92700195 C218.99545898 216.9012207 220.0331543 216.87543945 221.10229492 216.84887695 C225.68784563 217.34333942 228.23120218 219.23754987 231.39526367 222.48950195 C233.3320095 225.46379018 233.81922329 227.67206788 234.14526367 231.17700195 C235.03213867 231.42450195 235.91901367 231.67200195 236.83276367 231.92700195 C241.78358664 233.79523704 244.32606047 235.78435652 247.02026367 240.36450195 C248.63544093 245.8381582 248.49708535 250.18739633 246.12963867 255.4230957 C243.79942711 259.44197323 241.65432742 262.60863195 237.14526367 264.17700195 C230.78904468 264.77906617 225.15177028 264.31264875 219.14526367 262.17700195 C218.58838867 262.74547852 218.03151367 263.31395508 217.45776367 263.8996582 C213.09095642 268.3181 208.65639488 272.55795138 203.94213867 276.6027832 C201.5592772 278.69037706 199.34999968 280.90336794 197.14526367 283.17700195 C197.46881836 284.15282227 197.79237305 285.12864258 198.12573242 286.1340332 C203.49420476 305.03048622 195.43932479 322.62529139 187.14526367 339.17700195 C187.71736572 339.35223389 188.28946777 339.52746582 188.87890625 339.70800781 C204.36011912 344.62806891 224.34314969 356.20585036 233.08276367 370.30200195 C236.49146147 379.82505143 234.13363714 390.26730216 230.14526367 399.17700195 C226.65397814 405.89483099 222.57765384 412.05680627 218.14526367 418.17700195 C219.0435791 418.16652832 219.94189453 418.15605469 220.86743164 418.14526367 C224.19590814 418.11120725 227.52419989 418.08611577 230.8527832 418.06713867 C232.29421914 418.05707232 233.73563462 418.04341815 235.17700195 418.02612305 C237.24720301 418.00190184 239.31713443 417.99052554 241.38745117 417.98168945 C242.63381348 417.97121582 243.88017578 417.96074219 245.16430664 417.94995117 C248.14526367 418.17700195 248.14526367 418.17700195 250.14526367 420.17700195 C251.7794427 430.73895902 248.30517285 439.94518764 242.33276367 448.55200195 C235.9598709 456.38805888 227.08717112 461.49433233 217.14526367 463.17700195 C215.306782 463.25491082 213.4658354 463.28493811 211.62573242 463.2746582 C210.60415039 463.27143555 209.58256836 463.26821289 208.5300293 463.26489258 C207.47493164 463.25651367 206.41983398 463.24813477 205.33276367 463.23950195 C204.25833008 463.23499023 203.18389648 463.23047852 202.0769043 463.22583008 C199.43296684 463.21407924 196.78914415 463.19764982 194.14526367 463.17700195 C194.1974707 464.85729492 194.1974707 464.85729492 194.25073242 466.5715332 C194.27887206 468.04417446 194.30617204 469.51683193 194.33276367 470.98950195 C194.37046875 472.09648438 194.37046875 472.09648438 194.40893555 473.22583008 C194.48239271 478.63717439 194.48239271 478.63717439 193.0750742 480.89064187 C190.1858818 482.81650025 187.3308676 482.58723926 183.97532654 482.55173206 C183.23663287 482.55579279 182.4979392 482.55985352 181.73686087 482.56403729 C179.24186567 482.57404609 176.7474247 482.56252042 174.25244141 482.55122375 C172.45357496 482.55396218 170.65471012 482.55801238 168.85584927 482.56326741 C163.89727069 482.57389498 158.9388713 482.56569899 153.98030043 482.55451691 C148.63872445 482.54570225 143.29717262 482.55411048 137.95559692 482.56037903 C127.48536296 482.56988508 117.01519773 482.5632514 106.54496884 482.55111609 C94.3623681 482.53752012 82.17978388 482.53913182 69.99717748 482.54124942 C48.26625196 482.54444194 26.53535917 482.53275649 4.80444336 482.51318359 C-16.30168658 482.49417832 -37.40777813 482.48709572 -58.51391602 482.49267578 C-81.47465458 482.49872817 -104.43537624 482.49856642 -127.3961134 482.48718995 C-129.84259732 482.48598261 -132.28908125 482.48477662 -134.73556519 482.48357201 C-135.93941016 482.48296847 -137.14325514 482.48236493 -138.38358027 482.4817431 C-146.88366198 482.47785728 -155.38373741 482.47826014 -163.88381958 482.48015785 C-174.2368277 482.48227596 -184.58980214 482.47708494 -194.94280076 482.4625443 C-200.22915384 482.45528095 -205.51545777 482.45123975 -210.80181503 482.45578766 C-215.635196 482.45984484 -220.46847519 482.45475377 -225.30184066 482.44216158 C-227.05616454 482.43921808 -228.81049793 482.4396891 -230.56481946 482.44380466 C-232.93826955 482.44886974 -235.31137355 482.44177997 -237.68479919 482.43147755 C-238.37555522 482.43587403 -239.06631125 482.44027052 -239.77799928 482.44480023 C-243.37497054 482.41479467 -244.76554678 482.23646165 -247.85473633 480.17700195 C-248.13888068 477.07896346 -248.22943736 474.17999967 -248.19189453 471.08081055 C-248.19244843 470.13751892 -248.19300232 469.19422729 -248.193573 468.22235107 C-248.19331257 466.16851125 -248.18640676 464.11466422 -248.17373085 462.06086349 C-248.15541391 458.80702357 -248.15800292 455.55382995 -248.16679382 452.29995728 C-248.1886464 443.04679534 -248.17775098 433.79387704 -248.13964844 424.54077148 C-248.11782714 418.88428885 -248.12511724 413.22843954 -248.15010643 407.57197952 C-248.15369609 405.4182795 -248.14605818 403.26452973 -248.12685585 401.11091232 C-248.10045547 398.08975572 -248.11098871 395.07073045 -248.12939453 392.04956055 C-248.11246048 391.16509247 -248.09552643 390.28062439 -248.07807922 389.36935425 C-248.16499494 383.49799866 -249.59645329 380.31140134 -253.42850018 375.8561039 C-255.24296751 373.71993898 -256.20783183 371.54740191 -257.16723633 368.92700195 C-257.47274414 368.1174707 -257.77825195 367.30793945 -258.09301758 366.47387695 C-259.93410293 360.92229649 -260.07221943 355.87252752 -260.10473633 350.05200195 C-260.12536133 349.15223633 -260.14598633 348.2524707 -260.16723633 347.32543945 C-260.23286866 335.90541366 -256.71640517 325.63333285 -248.96801758 317.09887695 C-243.68453995 312.15794307 -238.63154908 309.66658879 -231.47973633 308.73950195 C-228.08006891 309.14980664 -225.76095734 309.90970113 -222.62817383 311.2043457 C-221.73275879 311.57164795 -220.83734375 311.9389502 -219.91479492 312.31738281 C-219.23497559 312.60105713 -218.55515625 312.88473145 -217.85473633 313.17700195 C-217.85326977 312.59760487 -217.85180321 312.01820778 -217.85029221 311.4212532 C-217.81300268 297.22725554 -217.75370006 283.03348656 -217.67083359 268.83967972 C-217.63127109 261.97522923 -217.59876439 255.11088959 -217.58374023 248.24633789 C-217.56918729 241.6066287 -217.53381851 234.96722876 -217.48642731 228.32765961 C-217.47172868 225.80991376 -217.46370203 223.29211875 -217.46285248 220.77433014 C-217.44014441 187.18290978 -207.9672109 162.4704322 -192.48843384 133.17930603 C-189.94992383 128.37287129 -187.47025364 123.54006751 -185.04223633 118.67700195 C-184.45829102 117.51168945 -183.8743457 116.34637695 -183.27270508 115.14575195 C-178.89503407 105.98038015 -178.71096917 97.93415716 -178.75708008 87.8996582 C-178.75849503 86.73317245 -178.75990997 85.56668671 -178.7613678 84.36485291 C-178.76694427 80.65637599 -178.77949248 76.94796048 -178.79223633 73.23950195 C-178.79725437 70.71801845 -178.80181674 68.196534 -178.8059082 65.67504883 C-178.816906 59.50901242 -178.83362068 53.34301157 -178.85473633 47.17700195 C-179.78286133 46.78512695 -180.71098633 46.39325195 -181.66723633 45.98950195 C-185.17275792 43.99616615 -186.28024786 42.83810549 -187.85473633 39.17700195 C-188.24291992 36.39379883 -188.24291992 36.39379883 -188.25317383 33.39575195 C-188.25704102 32.30649414 -188.2609082 31.21723633 -188.26489258 30.0949707 C-188.25329102 28.96704102 -188.24168945 27.83911133 -188.22973633 26.67700195 C-188.24133789 25.54907227 -188.25293945 24.42114258 -188.26489258 23.2590332 C-188.26102539 22.16977539 -188.2571582 21.08051758 -188.25317383 19.95825195 C-188.24979004 18.96889648 -188.24640625 17.97954102 -188.24291992 16.96020508 C-187.62755885 12.54818228 -185.3285173 8.95602673 -181.85473633 6.17700195 C-178.47284961 5.05602969 -175.25707611 5.03802734 -171.71264648 5.01586914 C-170.47100739 5.0062616 -169.22936829 4.99665405 -167.95010376 4.98675537 C-166.59800399 4.98190726 -165.24590208 4.97762846 -163.89379883 4.97387695 C-162.50141398 4.96812051 -161.10902913 4.96236284 -159.71664429 4.956604 C-156.7997806 4.94611289 -153.88294433 4.94025775 -150.96606445 4.93676758 C-147.23815495 4.93128401 -143.51061089 4.90725137 -139.78281593 4.87879562 C-136.90710406 4.86012465 -134.03147949 4.85496131 -131.15571213 4.8534317 C-129.781854 4.85041515 -128.40799704 4.8424204 -127.03419876 4.82924652 C-125.10807845 4.81209307 -123.18180635 4.81592447 -121.25561523 4.82055664 C-120.16181549 4.81691101 -119.06801575 4.81326538 -117.94107056 4.80950928 C-113.11058111 5.38468013 -109.86421338 7.13057233 -106.50708008 10.6105957 C-104.09388342 15.81922112 -104.31156594 20.57079696 -104.41723633 26.23950195 C-104.41014648 27.31522461 -104.40305664 28.39094727 -104.39575195 29.49926758 C-104.44813682 35.99902025 -105.01096404 39.85926762 -109.35473633 44.92700195 C-110.85473633 46.17700195 -110.85473633 46.17700195 -113.85473633 47.17700195 C-113.93122977 54.80836517 -113.98352153 62.43962832 -114.01953125 70.07128906 C-114.03455406 72.66377457 -114.05497819 75.25623493 -114.08105469 77.84863281 C-114.1177244 81.589663 -114.13452845 85.33035515 -114.14770508 89.0715332 C-114.16318893 90.21781693 -114.17867279 91.36410065 -114.19462585 92.54512024 C-114.19694132 103.78874666 -111.49899954 112.7599009 -106.24926758 122.62231445 C-105.80636887 123.47646942 -105.36347015 124.33062439 -104.90715027 125.21066284 C-103.50378178 127.91309634 -102.08636476 130.60781659 -100.66723633 133.30200195 C-81.51076195 169.92653824 -81.51076195 169.92653824 -78.91723633 181.30200195 C-78.72323242 182.07286133 -78.52922852 182.8437207 -78.3293457 183.63793945 C-76.22162304 192.21469326 -75.71255924 200.26292588 -75.74121094 209.07910156 C-75.74106491 210.26030579 -75.74091888 211.44151001 -75.74076843 212.6585083 C-75.74134351 215.87908305 -75.74634027 219.09961369 -75.75334239 222.3201797 C-75.75961643 225.69274499 -75.76018292 229.06531125 -75.7613678 232.43788147 C-75.7644692 238.81607234 -75.77266648 245.19424595 -75.78271729 251.57242924 C-75.79391548 258.83726352 -75.7993982 266.10209865 -75.80441272 273.36693943 C-75.81485014 288.30363653 -75.83242643 303.24031751 -75.85473633 318.17700195 C-69.11934788 317.55114254 -69.11934788 317.55114254 -63.35473633 314.23950195 C-58.41128054 310.67302953 -54.03638072 309.17700195 -47.85473633 309.17700195 C-47.85917755 308.57074982 -47.86361877 307.96449768 -47.86819458 307.33987427 C-47.91334089 300.88033472 -47.94296935 294.42084166 -47.96459961 287.96118164 C-47.97449827 285.56825941 -47.98802054 283.17534872 -48.00561523 280.7824707 C-48.23128828 249.24134331 -46.0988713 220.99476137 -34.74380493 191.45593262 C-33.1869802 187.40155643 -31.6646624 183.3345039 -30.14057922 179.26773071 C-29.39134289 177.26867116 -28.64078597 175.270106 -27.88883972 173.27206421 C-18.45546088 148.19858434 -11.18664871 122.8266537 -7.85473633 96.17700195 C-7.75708984 95.40243652 -7.65944336 94.62787109 -7.55883789 93.82983398 C-5.56568018 77.34433933 -5.2511719 60.76122325 -4.85473633 44.17700195 C-5.62301758 44.06098633 -6.39129883 43.9449707 -7.18286133 43.82543945 C-10.87650443 42.92902899 -12.4178541 41.02003122 -14.85473633 38.17700195 C-16.56283253 33.05271333 -16.08153948 27.66627268 -16.10473633 22.30200195 C-16.12536133 21.11735352 -16.14598633 19.93270508 -16.16723633 18.7121582 C-16.1749707 16.99706055 -16.1749707 16.99706055 -16.18286133 15.24731445 C-16.19220703 14.20333496 -16.20155273 13.15935547 -16.21118164 12.08374023 C-15.65268242 7.52929382 -13.35711097 4.09564748 -9.85473633 1.17700195 C-6.38894722 0.02173892 -3.65729259 0.02870348 0 0 Z M-3.85473633 12.17700195 C-3.85473633 18.77700195 -3.85473633 25.37700195 -3.85473633 32.17700195 C-2.06377588 33.9679624 0.60859152 33.30466986 3.02612305 33.30639648 C4.2841272 33.30954865 5.54213135 33.31270081 6.83825684 33.31594849 C8.2218428 33.3141587 9.60542845 33.31210775 10.98901367 33.30981445 C12.39766456 33.31048754 13.80631533 33.31145761 15.21496582 33.31271362 C18.1707469 33.31419037 21.12649781 33.31203678 24.08227539 33.30737305 C27.87900951 33.30167576 31.67567295 33.30495489 35.47240448 33.31094551 C38.38222795 33.31455175 41.29203455 33.31341225 44.20185852 33.31081772 C45.60215768 33.31014862 47.00245834 33.31097627 48.40275574 33.31329727 C50.35663831 33.31582478 52.31052622 33.31129229 54.2644043 33.30639648 C55.37835571 33.30560089 56.49230713 33.3048053 57.64001465 33.3039856 C60.08503828 33.46069568 60.08503828 33.46069568 61.14526367 32.17700195 C61.14526367 25.57700195 61.14526367 18.97700195 61.14526367 12.17700195 C39.69526367 12.17700195 18.24526367 12.17700195 -3.85473633 12.17700195 Z M-175.85473633 17.17700195 C-175.85473633 23.11700195 -175.85473633 29.05700195 -175.85473633 35.17700195 C-156.38473633 35.17700195 -136.91473633 35.17700195 -116.85473633 35.17700195 C-116.85473633 29.23700195 -116.85473633 23.29700195 -116.85473633 17.17700195 C-136.32473633 17.17700195 -155.79473633 17.17700195 -175.85473633 17.17700195 Z M7.14526367 44.17700195 C6.89776367 50.13762695 6.65026367 56.09825195 6.39526367 62.23950195 C4.18327416 108.69885695 -6.28170653 150.84065698 -22.82910156 194.11450195 C-29.6430132 211.99531419 -35.85164804 230.41698789 -36.04760742 249.72290039 C-36.05578491 250.42965408 -36.0639624 251.13640778 -36.0723877 251.86457825 C-36.09693249 254.17183633 -36.11366465 256.4790349 -36.12817383 258.78637695 C-36.13349751 259.57942482 -36.13882118 260.37247269 -36.14430618 261.18955231 C-36.17088535 265.37627693 -36.19031997 269.56297312 -36.20483398 273.74975586 C-36.21823592 277.20867994 -36.2462233 280.66702283 -36.28686523 284.12573242 C-36.33609445 288.31714468 -36.36093973 292.50802566 -36.36806107 296.69971466 C-36.37477683 298.29296954 -36.39000757 299.88621235 -36.41395187 301.47930145 C-36.4455074 303.70306429 -36.44565805 305.92475455 -36.43823242 308.14868164 C-36.44631927 309.41250671 -36.45440613 310.67633179 -36.46273804 311.97845459 C-36.14388659 315.35658983 -36.14388659 315.35658983 -33.4034729 317.49615479 C-32.1418483 318.32817413 -32.1418483 318.32817413 -30.85473633 319.17700195 C-29.2582408 321.42764894 -28.13257089 323.71598723 -26.85473633 326.17700195 C-22.29841149 326.77690407 -22.29841149 326.77690407 -18.19018555 325.02563477 C-16.47765341 323.34519616 -14.88030686 321.60050912 -13.29223633 319.80200195 C-6.7322736 312.84049851 0.06792191 307.27916426 8.14526367 302.17700195 C8.76095215 301.78673828 9.37664062 301.39647461 10.01098633 300.99438477 C29.05328662 289.14605942 50.91311452 281.92640502 73.45776367 282.05200195 C74.14032227 282.04813477 74.82288086 282.04426758 75.52612305 282.0402832 C81.43516003 282.05123601 87.26971351 282.57749782 93.14526367 283.17700195 C93.24600532 277.56181768 93.31759077 271.94718716 93.36499023 266.33129883 C93.38480026 264.43081474 93.41185602 262.53038893 93.44702148 260.63012695 C94.02311452 228.64001967 82.86452549 200.34999936 71.74291992 170.76293945 C58.58103117 135.53004671 52.75106761 99.89589543 51.02026367 62.48950195 C50.73151367 56.44637695 50.44276367 50.40325195 50.14526367 44.17700195 C35.95526367 44.17700195 21.76526367 44.17700195 7.14526367 44.17700195 Z M-166.85473633 47.17700195 C-166.89211914 51.39223633 -166.92950195 55.6074707 -166.96801758 59.95043945 C-167.00619074 63.33602389 -167.04726292 66.72154588 -167.09027863 70.10707092 C-167.13472642 73.66730553 -167.17420372 77.22742824 -167.20117188 80.7878418 C-167.2324359 84.88399256 -167.28721504 88.97954891 -167.34301758 93.07543945 C-167.3494075 94.33625336 -167.35579742 95.59706726 -167.36238098 96.89608765 C-167.52968614 107.04292626 -169.48869233 114.99256678 -174.07739258 124.0480957 C-174.37915405 124.64851181 -174.68091553 125.24892792 -174.99182129 125.86753845 C-175.95926503 127.78719926 -176.93811878 129.70077356 -177.91723633 131.61450195 C-178.59423138 132.95418315 -179.27057641 134.29419301 -179.94628906 135.63452148 C-183.27453975 142.21771007 -186.67463238 148.75600419 -190.17651367 155.2487793 C-206.53072869 185.60802063 -205.85473633 211.34629903 -205.85473633 247.17700195 C-166.58473633 247.17700195 -127.31473633 247.17700195 -86.85473633 247.17700195 C-86.85473633 198.62661442 -92.31986781 173.63431415 -113.52270508 133.5168457 C-115.75014344 129.28827931 -117.97459198 125.05868007 -120.15551758 120.8059082 C-120.62771729 119.89010986 -121.09991699 118.97431152 -121.58642578 118.03076172 C-125.14006489 110.03490272 -125.19148523 102.83847262 -125.26879883 94.1496582 C-125.28753387 92.79201613 -125.30710899 91.43438542 -125.32748413 90.07676697 C-125.37856499 86.52426891 -125.41831835 82.9717332 -125.45562744 79.41906738 C-125.49581894 75.78555203 -125.54673807 72.15218762 -125.59692383 68.51879883 C-125.69440197 61.40492549 -125.77411055 54.29116602 -125.85473633 47.17700195 C-139.38473633 47.17700195 -152.91473633 47.17700195 -166.85473633 47.17700195 Z M214.39526367 229.36450195 C212.67544204 231.85824333 212.63765664 233.20387506 213.14526367 236.17700195 C214.13526367 237.10512695 214.13526367 237.10512695 215.14526367 238.05200195 C217.14526367 240.17700195 217.14526367 240.17700195 217.39526367 243.92700195 C217.31276367 244.99950195 217.23026367 246.07200195 217.14526367 247.17700195 C218.03213867 247.07387695 218.91901367 246.97075195 219.83276367 246.86450195 C224.1781609 247.27444509 225.17296936 249.12849496 228.14526367 252.17700195 C231.16628205 252.75243402 232.42958699 252.63026385 235.02026367 250.98950195 C236.38808232 249.16882374 236.38808232 249.16882374 236.02026367 246.61450195 C235.30137199 243.85084085 235.30137199 243.85084085 232.14526367 242.17700195 C230.96963867 242.03262695 229.79401367 241.88825195 228.58276367 241.73950195 C227.44838867 241.55387695 226.31401367 241.36825195 225.14526367 241.17700195 C223.14526367 238.17700195 223.14526367 238.17700195 223.20776367 234.67700195 C223.45469356 231.28302551 223.45469356 231.28302551 221.89526367 229.23950195 C219.2041966 227.6056398 217.00329943 227.5947634 214.39526367 229.36450195 Z M-205.85473633 258.17700195 C-205.85473633 277.97700195 -205.85473633 297.77700195 -205.85473633 318.17700195 C-200.61493059 318.24713963 -200.61493059 318.24713963 -197.04223633 315.30200195 C-191.55172614 310.96090698 -186.80070834 309.89963788 -179.85473633 310.23950195 C-175.30155576 310.79989341 -172.28381765 312.38452173 -168.64379883 315.1184082 C-166.62744982 316.51649241 -166.62744982 316.51649241 -162.85473633 316.17700195 C-161.04783121 315.12955265 -161.04783121 315.12955265 -159.29223633 313.73950195 C-154.29213651 310.4677176 -149.71357587 310.29417874 -143.85473633 310.17700195 C-142.84668945 310.12672852 -141.83864258 310.07645508 -140.80004883 310.0246582 C-130.11089511 309.6846724 -124.61967983 311.91632803 -115.85473633 318.17700195 C-106.28473633 318.17700195 -96.71473633 318.17700195 -86.85473633 318.17700195 C-86.85473633 298.37700195 -86.85473633 278.57700195 -86.85473633 258.17700195 C-126.12473633 258.17700195 -165.39473633 258.17700195 -205.85473633 258.17700195 Z M94.09057617 307.6184082 C86.49878138 317.60360015 84.96856807 327.95159309 86.14526367 340.17700195 C88.59899925 350.14450814 94.87521743 358.82121114 103.28198242 364.66137695 C111.75572983 369.68942952 121.2657305 371.77267145 130.95776367 369.5246582 C143.33630601 365.76918898 152.94599613 359.11075583 162.14526367 350.17700195 C162.83233398 349.5634082 163.5194043 348.94981445 164.22729492 348.31762695 C177.08984039 336.44450806 186.84616713 317.64859332 187.54980469 300.10864258 C187.68569552 291.37136554 186.56117611 285.75179404 180.45776367 279.36450195 C152.93746462 261.19071956 112.35208813 286.64057816 94.09057617 307.6184082 Z M-10.85473633 333.17700195 C-11.34973633 334.16700195 -11.34973633 334.16700195 -11.85473633 335.17700195 C-13.70556641 335.78369141 -13.70556641 335.78369141 -16.12426758 336.2902832 C-17.44890015 336.58008057 -17.44890015 336.58008057 -18.80029297 336.87573242 C-20.21942993 337.17954834 -20.21942993 337.17954834 -21.66723633 337.48950195 C-29.79561115 339.33614642 -37.37935752 341.39572433 -44.85473633 345.17700195 C-45.8215332 345.65524414 -46.78833008 346.13348633 -47.78442383 346.6262207 C-67.60377953 357.2566024 -81.52937809 375.96166181 -88.22973633 397.23950195 C-88.80132366 399.21023567 -89.34613492 401.18908141 -89.85473633 403.17700195 C-90.05325195 403.91821289 -90.25176758 404.65942383 -90.45629883 405.4230957 C-90.84682199 408.12229993 -90.89369037 410.62488194 -90.87963867 413.34912109 C-90.8760434 414.25239639 -90.87244812 415.15567169 -90.8687439 416.08631897 C-90.8641214 416.77624435 -90.8594989 417.46616974 -90.85473633 418.17700195 C-53.79193381 418.36012386 -16.72919944 418.50108464 20.33396396 418.58552459 C24.70986669 418.59553021 29.08576852 418.60588479 33.46166992 418.61645508 C34.76841147 418.6196028 34.76841147 418.6196028 36.10155183 418.62281412 C50.2062466 418.65762214 64.31068045 418.72069716 78.41522044 418.79422432 C92.88844162 418.86904401 107.36152617 418.91347372 121.8349328 418.92970991 C130.7655436 418.94068556 139.6954169 418.97534588 148.62580067 419.04033369 C154.75022622 419.08263104 160.87427069 419.09540082 166.99883169 419.08501297 C170.5323935 419.07988986 174.06466705 419.08772449 177.59799957 419.13064575 C181.43173404 419.17687526 185.26379572 419.16089106 189.09777832 419.13903809 C190.76705958 419.17399218 190.76705958 419.17399218 192.47006369 419.20965242 C198.34113914 419.11913013 201.50559061 418.47804374 205.76468658 414.27825165 C206.92388866 412.93848361 208.0557238 411.57400972 209.14526367 410.17700195 C209.85038086 409.32493164 210.55549805 408.47286133 211.28198242 407.5949707 C217.13423342 399.17775327 224.47749863 387.85277594 222.82495117 377.09106445 C220.0798871 369.7805254 212.45090025 366.11065031 206.14526367 362.17700195 C205.04956055 361.47188477 203.95385742 360.76676758 202.82495117 360.0402832 C192.42622468 353.21379644 192.42622468 353.21379644 181.14526367 348.17700195 C177.98141028 349.37361041 176.02846965 351.1020095 173.74682617 353.5559082 C173.10986816 354.22581787 172.47291016 354.89572754 171.81665039 355.5859375 C170.80368896 356.6519519 170.80368896 356.6519519 169.77026367 357.73950195 C157.03704979 370.74965091 142.27783171 380.5494171 123.43432617 381.3059082 C109.16572441 380.74668747 97.28468489 375.60803604 87.50854492 365.19262695 C78.62789119 353.86061921 74.46814389 341.24530609 75.34838867 326.85668945 C76.92490278 315.44155954 81.67141841 306.92326388 88.31713867 297.7668457 C90.24137754 295.56918532 90.24137754 295.56918532 90.14526367 294.17700195 C52.67453745 286.43095267 13.73310368 305.57133852 -10.85473633 333.17700195 Z M-243.04223633 328.73950195 C-248.90186877 337.02911321 -250.05770292 347.10957323 -248.38598633 356.9309082 C-246.63116788 364.44111333 -243.32942648 370.7023118 -237.85473633 376.17700195 C-237.63679038 379.15819198 -237.54328224 382.04916267 -237.53588867 385.03295898 C-237.52082024 386.40865051 -237.52082024 386.40865051 -237.50544739 387.81213379 C-237.47447948 390.85302078 -237.45754255 393.89381921 -237.44067383 396.93481445 C-237.42197312 399.03946706 -237.40240055 401.14411208 -237.38198853 403.24874878 C-237.3305454 408.7955072 -237.29098499 414.34228997 -237.25384521 419.88916016 C-237.21388176 425.5463672 -237.16275458 431.20347193 -237.11254883 436.8605957 C-237.01564533 447.96599992 -236.93231816 459.07144593 -236.85473633 470.17700195 C-224.64473633 470.17700195 -212.43473633 470.17700195 -199.85473633 470.17700195 C-199.71899913 458.71103743 -199.60899922 447.24560947 -199.5438633 435.77902222 C-199.51259586 430.45418364 -199.47020648 425.12992485 -199.40209961 419.80541992 C-199.33674401 414.66362843 -199.30099579 409.52239341 -199.28547287 404.38021851 C-199.27441561 402.42181645 -199.25282281 400.46344368 -199.22035599 398.50527954 C-199.17657647 395.75456762 -199.17081107 393.00613311 -199.17358398 390.25512695 C-199.15201233 389.45167343 -199.13044067 388.64821991 -199.10821533 387.82041931 C-199.16933902 382.18931516 -200.78210725 379.17082007 -204.42694664 374.90196228 C-206.31981519 372.61512467 -207.23839353 370.29239761 -208.16723633 367.48950195 C-208.47274414 366.59875977 -208.77825195 365.70801758 -209.09301758 364.7902832 C-212.57677051 352.83833083 -211.19823344 340.97875069 -207.85473633 329.17700195 C-208.56758789 329.17442383 -209.28043945 329.1718457 -210.01489258 329.16918945 C-217.37318813 328.87208465 -220.78191578 327.38292858 -225.85473633 322.17700195 C-233.0151437 318.59679827 -238.56932199 323.36096051 -243.04223633 328.73950195 Z M-191.85473633 325.17700195 C-199.23882814 333.81435705 -200.35020465 342.35352563 -200.16333008 353.4230957 C-199.55395677 360.83585201 -197.66607136 366.51854971 -192.25878906 371.67089844 C-186.35521138 379.16009808 -187.88424444 389.35422896 -187.95239258 398.3996582 C-187.94300018 400.47189396 -187.9305379 402.54411787 -187.91514587 404.61631775 C-187.88299996 410.04656628 -187.89233357 415.47596791 -187.91052246 420.90625 C-187.92170259 426.45688039 -187.8933554 432.00729654 -187.8684082 437.55786133 C-187.82532636 448.4311508 -187.82975322 459.30365562 -187.85473633 470.17700195 C-175.64473633 470.17700195 -163.43473633 470.17700195 -150.85473633 470.17700195 C-150.69621952 458.87597311 -150.56795459 447.57568963 -150.49205112 436.27379799 C-150.45561027 431.02512743 -150.40622811 425.77726073 -150.32666016 420.52905273 C-150.25027266 415.45855248 -150.20867732 410.38882249 -150.19059563 405.31779099 C-150.17772002 403.38891864 -150.15257647 401.46008568 -150.11462593 399.53154373 C-149.90366126 388.36064967 -149.87365345 380.75847139 -157.85473633 372.17700195 C-164.18213913 359.37947297 -163.26722648 342.73555657 -159.85473633 329.17700195 C-160.56758789 329.17442383 -161.28043945 329.1718457 -162.01489258 329.16918945 C-168.47420511 328.90838276 -171.65626287 328.08335436 -176.24536133 323.55981445 C-181.35919414 319.16589015 -187.27044092 321.16048625 -191.85473633 325.17700195 Z M-145.56567383 327.3527832 C-152.19192538 337.74468503 -153.26977073 348.35331941 -150.72973633 360.30200195 C-148.94786267 366.91795392 -145.63471352 371.39702476 -140.85473633 376.17700195 C-140.63679038 379.15819198 -140.54328224 382.04916267 -140.53588867 385.03295898 C-140.52082024 386.40865051 -140.52082024 386.40865051 -140.50544739 387.81213379 C-140.47447948 390.85302078 -140.45754255 393.89381921 -140.44067383 396.93481445 C-140.42197312 399.03946706 -140.40240055 401.14411208 -140.38198853 403.24874878 C-140.3305454 408.7955072 -140.29098499 414.34228997 -140.25384521 419.88916016 C-140.20685879 426.54053511 -140.145209 433.19178815 -140.08599854 439.84306335 C-139.99763794 449.95432734 -139.92797967 460.06556621 -139.85473633 470.17700195 C-116.75473633 470.17700195 -93.65473633 470.17700195 -69.85473633 470.17700195 C-69.85473633 467.86700195 -69.85473633 465.55700195 -69.85473633 463.17700195 C-70.49910645 463.16241943 -71.14347656 463.14783691 -71.80737305 463.1328125 C-74.78203832 463.05744721 -77.75568728 462.96108565 -80.72973633 462.86450195 C-82.24954102 462.83066406 -82.24954102 462.83066406 -83.80004883 462.79614258 C-96.05395828 462.36411372 -106.67517512 459.06877484 -115.70629883 450.3996582 C-121.97069595 442.80206888 -125.54584227 432.91799148 -125.12817383 423.1027832 C-124.85473633 421.17700195 -124.85473633 421.17700195 -123.85473633 419.17700195 C-113.45973633 418.68200195 -113.45973633 418.68200195 -102.85473633 418.17700195 C-102.62786133 415.70200195 -102.40098633 413.22700195 -102.16723633 410.67700195 C-99.25553555 384.35471832 -85.87701549 360.9830866 -65.42504883 344.1809082 C-57.1695481 338.10431832 -47.63402505 333.2145083 -37.85473633 330.17700195 C-39.75908922 326.65394909 -41.29207811 324.10276315 -44.85473633 322.17700195 C-49.77837144 320.98579991 -51.6529942 320.54211932 -56.16723633 322.92700195 C-58.75523677 324.94179378 -58.75523677 324.94179378 -60.14570618 326.79634094 C-62.6790962 328.8429712 -64.66530514 328.53718105 -67.88671875 328.51757812 C-69.74830879 328.51723824 -69.74830879 328.51723824 -71.64750671 328.51689148 C-73.00174316 328.50157163 -74.35597594 328.48592365 -75.71020508 328.4699707 C-77.09596803 328.46437447 -78.48173692 328.4601045 -79.86750793 328.45710754 C-83.51236396 328.44566078 -87.15686056 328.41619553 -90.80157471 328.38299561 C-94.52171974 328.3522908 -98.24192294 328.33860136 -101.9621582 328.32348633 C-109.25984799 328.29132526 -116.55724177 328.24013146 -123.85473633 328.17700195 C-124.12672852 327.5530957 -124.3987207 326.92918945 -124.67895508 326.28637695 C-126.41917193 323.16439324 -128.58682914 322.45853418 -131.85473633 321.17700195 C-137.58331151 320.14879615 -142.12700909 322.97986937 -145.56567383 327.3527832 Z M-113.85473633 429.17700195 C-109.87284365 439.13173366 -106.94995935 445.01637102 -97.29223633 449.61450195 C-89.83013225 452.76015263 -81.74656056 452.32161365 -73.80497742 452.31071472 C-72.59323705 452.31298028 -71.38149668 452.31524583 -70.13303691 452.31758004 C-66.78187326 452.3228048 -63.43076338 452.32356672 -60.0795995 452.32238567 C-56.46054332 452.32218118 -52.84149508 452.32770502 -49.22244263 452.33244324 C-42.13669595 452.34073976 -35.05095759 452.34349762 -27.96520647 452.34405562 C-22.20411138 452.34453123 -16.44301904 452.34658827 -10.68192482 452.34975624 C5.66130884 452.35855997 22.00453593 452.36317604 38.34777198 452.36242577 C39.22832461 452.36238581 40.10887724 452.36234585 41.01611328 452.36230469 C42.33855974 452.36224337 42.33855974 452.36224337 43.68772229 452.36218081 C57.97478967 452.36177438 72.26183069 452.37134378 86.54889045 452.38544305 C101.22802331 452.39981465 115.90714331 452.40671281 130.58628339 452.40584928 C138.8237772 452.40551759 147.06124338 452.40825248 155.29873085 452.41902733 C162.31225626 452.42814262 169.3257415 452.43029912 176.33927027 452.42351791 C179.91518142 452.42025794 183.49101555 452.42017705 187.06691933 452.42887115 C190.94949961 452.43821352 194.83196804 452.43194647 198.71455383 452.42424011 C200.39711642 452.43195546 200.39711642 452.43195546 202.11367017 452.43982667 C212.84351491 452.39283929 221.82395992 451.38455568 230.14526367 444.17700195 C234.77005839 439.29472402 236.23260987 435.87129028 238.14526367 429.17700195 C121.98526367 429.17700195 5.82526367 429.17700195 -113.85473633 429.17700195 Z M-57.85473633 463.17700195 C-57.85473633 465.48700195 -57.85473633 467.79700195 -57.85473633 470.17700195 C21.34526367 470.17700195 100.54526367 470.17700195 182.14526367 470.17700195 C182.14526367 467.86700195 182.14526367 465.55700195 182.14526367 463.17700195 C102.94526367 463.17700195 23.74526367 463.17700195 -57.85473633 463.17700195 Z " fill="#000000" transform="translate(260.854736328125,14.822998046875)"/>
<path d="M0 0 C0.96808594 -0.00773437 1.93617188 -0.01546875 2.93359375 -0.0234375 C6.03730437 0.44696144 7.39377623 1.11176763 9.5625 3.375 C10.20703125 5.64453125 10.20703125 5.64453125 10.375 8.1875 C10.44332031 9.01894531 10.51164062 9.85039062 10.58203125 10.70703125 C10.56023057 13.6850038 10.07811705 16.44610334 9.5625 19.375 C10.85498657 19.3435791 10.85498657 19.3435791 12.17358398 19.31152344 C15.4108475 19.24281666 18.64773591 19.19294374 21.88549805 19.15527344 C23.27917814 19.13532005 24.6727763 19.10814681 26.06616211 19.07324219 C35.26887527 18.84870523 43.22271106 19.00608178 50.625 25.0625 C52.10903457 28.72311862 52.11436173 32.48329973 51.5625 36.375 C50.9025 37.365 50.2425 38.355 49.5625 39.375 C43.546875 40.03125 43.546875 40.03125 40.6875 38.125 C39.45743337 36.21156302 38.94747994 34.60788365 38.5625 32.375 C34.30174424 31.54562849 30.39660794 31.30755771 26.0625 31.453125 C24.845625 31.47890625 23.62875 31.5046875 22.375 31.53125 C19.83290138 31.59376062 17.29113903 31.67189446 14.75 31.765625 C4.3864469 31.94127844 4.3864469 31.94127844 0.75 29.046875 C-3.2711169 24.13536793 -2.51573018 19.39872405 -2.4375 13.375 C-10.94732594 14.62417128 -18.55570346 17.5367667 -26.5 20.75 C-27.71494141 21.23210937 -28.92988281 21.71421875 -30.18164062 22.2109375 C-36.08507895 24.56591344 -41.93334518 26.97485059 -47.671875 29.70996094 C-50.23474334 30.67528911 -51.94631265 30.43186736 -54.4375 29.375 C-56.4375 27.375 -56.4375 27.375 -56.5625 23.75 C-56.52125 22.63625 -56.48 21.5225 -56.4375 20.375 C-47.37613571 15.54840973 -38.18425072 11.31661336 -28.625 7.5625 C-27.68390381 7.1900415 -26.74280762 6.81758301 -25.77319336 6.43383789 C-8.92292627 -0.07264255 -8.92292627 -0.07264255 0 0 Z " fill="#000000" transform="translate(273.4375,376.625)"/>
</svg>
