<svg width="0" height="0" class="hidden">
  <symbol fill="#000000" version="1.1" xml:space="preserve" xmlns="http://www.w3.org/2000/svg" xmlns:xlink="http://www.w3.org/1999/xlink" viewBox="0 0 64 64" id="drinks">
    <g id="Layer_2"></g>
    <g id="Layer_3"></g>
    <g id="Layer_4"></g>
    <g id="Layer_5"></g>
    <g id="Layer_6"></g>
    <g id="Layer_7"></g>
    <g id="Layer_8">
      <path d="M57.21,11.16l-14.16-9C42.8,2,42.49,1.96,42.21,2.05c-0.28,0.09-0.51,0.3-0.62,0.58L38.19,11H21.03   c-0.49-3.6-3.58-6.39-7.31-6.39c-4.07,0-7.39,3.32-7.39,7.39c0,3.73,2.79,6.82,6.39,7.31v8.34c0,7.23,5.15,13.28,11.98,14.66v13.98   l-3.87,0.89c-1.06,0.24-1.77,1.17-1.73,2.26c0.04,1.08,0.8,1.94,1.86,2.11c1.37,0.21,2.99,0.36,4.68,0.42   C26.3,61.99,26.98,62,27.67,62s1.37-0.01,2.02-0.04c1.71-0.06,3.33-0.2,4.69-0.42c1.06-0.16,1.83-1.03,1.86-2.11   c0.04-1.09-0.67-2.01-1.73-2.26l-3.87-0.89V42.32c6.83-1.39,11.98-7.43,11.98-14.66V12c0-0.55-0.45-1-1-1h-1.28l2.64-6.51   l13.15,8.36c0.47,0.3,1.08,0.16,1.38-0.31C57.82,12.07,57.68,11.45,57.21,11.16z M34.57,19.95c-0.6,0.18-1.18,0.41-1.71,0.73   c-0.79,0.47-1.74,0.47-2.54-0.01c-2.42-1.42-5.54-1.43-7.98,0.01c-0.79,0.48-1.74,0.48-2.54,0.01c-1.53-0.91-3.39-1.25-5.08-1.01   V18.4c0,0,0,0,0,0s0,0,0,0V13h22.67L34.57,19.95z M8.33,12c0-2.97,2.42-5.39,5.39-5.39c2.63,0,4.82,1.9,5.29,4.39h-5.29   c-0.55,0-1,0.45-1,1v5.29C10.22,16.82,8.33,14.63,8.33,12z M28.67,57.17c0.01,0.07,0.02,0.13,0.04,0.2   c0.02,0.06,0.04,0.12,0.07,0.17c0.03,0.06,0.07,0.11,0.11,0.16c0.04,0.05,0.08,0.1,0.13,0.14c0.05,0.04,0.1,0.07,0.15,0.1   c0.06,0.03,0.12,0.06,0.19,0.08c0.03,0.01,0.05,0.03,0.08,0.04l4.64,1.07c0.05,0.01,0.18,0.04,0.17,0.24   c-0.01,0.17-0.11,0.19-0.17,0.2c-1.29,0.2-2.83,0.34-4.47,0.39c-1.25,0.06-2.6,0.06-3.88,0c-1.63-0.06-3.17-0.19-4.46-0.39   c-0.06-0.01-0.17-0.03-0.17-0.2c-0.01-0.19,0.13-0.22,0.17-0.24l4.64-1.07c0.03-0.01,0.05-0.03,0.08-0.04   c0.07-0.02,0.13-0.05,0.19-0.08c0.05-0.03,0.11-0.06,0.15-0.1c0.05-0.04,0.09-0.09,0.13-0.14c0.04-0.05,0.08-0.1,0.11-0.16   c0.03-0.06,0.05-0.11,0.07-0.17c0.02-0.07,0.03-0.13,0.04-0.2c0-0.03,0.02-0.05,0.02-0.08V42.57c0.33,0.02,0.65,0.05,0.98,0.05   s0.65-0.03,0.98-0.05v14.52C28.66,57.12,28.67,57.15,28.67,57.17z M27.67,40.62c-7.15,0-12.96-5.81-12.96-12.96v-5.97   c1.32-0.26,2.84-0.02,4.06,0.71c0.72,0.42,1.51,0.64,2.29,0.64c0.79,0,1.58-0.22,2.29-0.65c1.81-1.06,4.15-1.06,5.94-0.01   c1.31,0.79,2.85,0.85,4.21,0.21l-5.26,12.99c-0.21,0.51,0.04,1.09,0.55,1.3c0.12,0.05,0.25,0.07,0.38,0.07   c0.4,0,0.77-0.24,0.93-0.63l5.94-14.67c1.25-0.18,2.65,0.05,3.8,0.74c0.26,0.15,0.52,0.27,0.8,0.37v4.89   C40.64,34.8,34.82,40.62,27.67,40.62z M40.64,13v7.57c-1.15-0.64-2.44-0.98-3.76-0.99L39.54,13H40.64z"></path>
    </g>
    <g id="Layer_9"></g>
    <g id="Layer_10"></g>
    <g id="Layer_11"></g>
    <g id="Layer_12"></g>
  </symbol>
  <symbol fill="#000000" version="1.1" id="maindish" xmlns="http://www.w3.org/2000/svg" xmlns:xlink="http://www.w3.org/1999/xlink" xml:space="preserve" viewBox="0 0 512 512">
    <g>
      <g>
        <path d="M255.466,136.317c0-7.878,2.851-11.441,6.795-16.372c4.592-5.741,10.307-12.885,10.307-26.388
			c0-13.508-5.714-20.656-10.306-26.401c-3.945-4.935-6.796-8.502-6.796-16.389c0-4.427-3.589-8.017-8.017-8.017
			s-8.017,3.589-8.017,8.017c0,13.508,5.714,20.656,10.306,26.401c3.945,4.936,6.796,8.503,6.796,16.389
			c0,7.878-2.851,11.441-6.795,16.372c-4.592,5.741-10.307,12.885-10.307,26.388c0,13.495,5.716,20.635,10.311,26.372
			c3.943,4.925,6.792,8.484,6.792,16.351c0,4.427,3.589,8.017,8.017,8.017s8.017-3.589,8.017-8.017
			c0-13.495-5.716-20.634-10.31-26.372C258.315,147.743,255.466,144.183,255.466,136.317z"></path>
      </g>
    </g>
    <g>
      <g>
        <path d="M300.859,64.565c-1.787-4.05-6.519-5.884-10.571-4.097c-4.051,1.787-5.884,6.52-4.097,10.571
			c3.018,6.838,4.548,14.414,4.548,22.517c0,19.789-8.867,30.959-14.22,37.653c-1.144,1.385-1.831,3.162-1.831,5.1
			c0,4.427,3.589,8.017,8.017,8.017c2.545,0,4.814-1.188,6.284-3.038c5.786-7.233,17.783-22.259,17.783-47.731
			C306.772,83.209,304.783,73.456,300.859,64.565z"></path>
      </g>
    </g>
    <g>
      <g>
        <path d="M235.952,89.072c-2.455-3.683-7.434-4.679-11.117-2.223c-0.949,0.633-1.719,1.432-2.298,2.334
			c-5.941,7.445-17.31,22.342-17.31,47.133c0,10.267,1.96,19.949,5.827,28.778c1.318,3.01,4.261,4.804,7.348,4.804
			c1.073,0,2.164-0.217,3.211-0.676c4.055-1.777,5.904-6.503,4.128-10.559c-2.973-6.79-4.48-14.308-4.48-22.347
			c0-19.871,8.944-31.052,14.29-37.736c0.144-0.181,0.281-0.368,0.409-0.56C237.756,95.327,237.748,91.765,235.952,89.072z"></path>
      </g>
    </g>
    <g>
      <g>
        <path d="M503.983,273.637H391.794c-1.463-12.376-6.263-23.739-13.482-33.165l106.137-125.418c2.86-3.38,2.439-8.438-0.941-11.298
			c-3.38-2.86-8.439-2.438-11.298,0.941L367.083,228.923c-8.828-7.158-19.481-12.139-31.141-14.144L408.79,36.706
			c1.676-4.098-0.286-8.779-4.385-10.455c-4.097-1.677-8.778,0.287-10.455,4.385l-75.021,183.385
			c-16.123,1.296-30.668,8.242-41.654,18.863c-17.749-32.677-51.941-53.308-89.684-53.308c-53.589,0-97.664,41.508-101.766,94.063
			H8.017c-4.427,0-8.017,3.589-8.017,8.017c0,4.427,3.589,8.017,8.017,8.017h2.267c12.901,50.73,36.302,95.531,69.626,133.24
			c27.99,31.672,55.72,49.912,69.759,57.965c6.239,3.58,13.427,5.472,20.788,5.472h171.086c7.36,0,14.549-1.892,20.788-5.472
			c14.039-8.054,41.77-26.294,69.76-57.965c33.325-37.708,56.726-82.509,69.626-133.24h2.267c4.427,0,8.017-3.589,8.017-8.017
			C512,277.227,508.411,273.637,503.983,273.637z M367.64,253.084c4.031,6.08,6.82,13.05,7.989,20.553h-18.521
			c-0.49-1.996-1.159-3.92-1.987-5.759L367.64,253.084z M324.378,229.813c0.01,0,0.018,0.001,0.028,0.001
			c0.007,0,0.015-0.001,0.021-0.001c12.207,0.004,23.432,4.258,32.298,11.348l-11.737,13.87c-5.695-4.412-12.833-7.048-20.578-7.048
			c-15.804,0-29.091,10.947-32.698,25.653H273.19C277.054,248.855,298.533,229.828,324.378,229.813z M334.611,267.293l-5.368,6.344
			h-20.524c2.926-5.701,8.853-9.62,15.69-9.62C328.211,264.017,331.728,265.239,334.611,267.293z M187.591,195.608
			c34.135,0,64.824,20.015,78.646,51.116c-4.846,8.041-8.061,17.165-9.213,26.914h-2.048c-3.981-33.659-32.673-59.858-67.385-59.858
			c-34.712,0-63.405,26.199-67.385,59.858h-18.274C105.989,229.937,142.849,195.608,187.591,195.608z M187.591,247.984
			c-15.804,0-29.091,10.947-32.699,25.653h-18.521c3.865-24.792,25.359-43.825,51.219-43.825s47.354,19.033,51.219,43.825h-18.521
			C216.683,258.93,203.394,247.984,187.591,247.984z M203.281,273.637h-31.38c2.926-5.701,8.853-9.62,15.69-9.62
			C194.43,264.017,200.356,267.936,203.281,273.637z M354.352,466.969c-3.814,2.188-8.243,3.345-12.809,3.345H170.458
			c-4.565,0-8.995-1.156-12.81-3.345C134.127,453.475,56.832,401.583,26.857,289.67h458.286
			C455.168,401.583,377.873,453.475,354.352,466.969z"></path>
      </g>
    </g>
  </symbol>
  <symbol xmlns="http://www.w3.org/2000/svg" viewBox="0 -4.83 52 52" id="dish">
    <g id="Group_49" transform="translate(-788.946 -1785.428)">
      <path id="Path_131" d="M814.946,1793.095a24,24,0,0,0-24,24h48A24,24,0,0,0,814.946,1793.095Z" fill="#ffffff" stroke="#231f20" stroke-linecap="round" stroke-linejoin="round" stroke-width="4"></path>
      <line id="Line_51" x2="48" transform="translate(790.946 1825.761)" fill="#ffffff" stroke="#231f20" stroke-linecap="round" stroke-linejoin="round" stroke-width="4"></line>
      <line id="Line_52" y2="5.667" transform="translate(814.946 1787.428)" fill="#ffffff" stroke="#231f20" stroke-linecap="round" stroke-linejoin="round" stroke-width="4"></line>
    </g>
  </symbol>
  <symbol fill="#000000" version="1.1" xmlns="http://www.w3.org/2000/svg" viewBox="0 0 1024 1024" id="relaxed">
    <path d="M788 946.4c-11.2 0-20.8-8.8-20.8-20v-21.6H256.8v21.6c0 11.2-9.6 20-20.8 20-11.2 0-20.8-8.8-20.8-20V904l-2.4-0.8c-43.2-8-74.4-44-74.4-86.4v-200l0.8-22.4h-2.4C60 584 3.2 519.2 3.2 445.6c0-76 59.2-140 136.8-149.6h2.4v-77.6c0-64.8 36-130.4 116-130.4h512c31.2 0 58.4 10.4 78.4 30.4 23.2 23.2 36 59.2 36 100l0.8 77.6h2.4c75.2 11.2 132 75.2 132 148.8 0 73.6-57.6 137.6-132.8 148.8h-2.4l0.8 22.4v200.8c0 42.4-31.2 78.4-74.4 86.4l-2.4 0.8v22.4c-0.8 11.2-9.6 20-20.8 20zM160 334.4c-64 0-116 50.4-116 111.2s52 112 116 112c5.6 0 11.2 2.4 14.4 5.6 4 4 5.6 8.8 5.6 14.4l-0.8 40.8v200c0 26.4 22.4 48.8 50.4 48.8h564c28 0 50.4-21.6 50.4-48.8v-200l-0.8-40.8c0-5.6 1.6-10.4 5.6-14.4 4-4 8.8-5.6 14.4-5.6 64 0 116-49.6 116-111.2s-51.2-112-115.2-112c-63.2 0-115.2 49.6-116 110.4l1.6 20v202.4c0 11.2-9.6 20-20.8 20H294.4c-11.2 0-20.8-8.8-20.8-20V466.4v-1.6l1.6-19.2c0-61.6-52-111.2-115.2-111.2zM266.4 136c-49.6 0-71.2 44-71.2 87.2v76l2.4 0.8c64.8 11.2 114.4 60.8 123.2 123.2V640H704V422.4c9.6-62.4 62.4-113.6 128-123.2h2.4V224c0-43.2-21.6-87.2-70.4-87.2H266.4z" fill=""></path>
  </symbol>
</svg>